<svg width="589" height="501" viewBox="0 0 589 501" fill="none" xmlns="http://www.w3.org/2000/svg">
<path d="M201.385 277.8H202.36L201.385 278.775C201.385 280.075 192.61 301.2 191.31 305.1C190.335 306.075 189.035 306.4 187.735 306.4C187.735 305.425 188.06 304.125 189.035 303.475C189.035 302.5 189.035 300.875 190.01 300.225L191.31 297.3C191.31 294.7 193.91 293.4 193.91 290.8L196.185 287.55C196.185 286.575 196.51 284.95 197.485 284.3L198.46 281.7L195.21 280.725V281.05L193.585 282.675C192.935 286.25 191.31 289.175 189.685 292.425H186.435C186.435 294.7 186.11 297.3 185.135 299.25L182.535 301.525C182.535 303.15 183.835 302.5 183.835 304.125L179.935 305.1C179.935 306.075 179.61 307.375 178.96 308.025V311.275L177.66 312.575C177.66 315.5 175.06 317.125 175.06 320.05L171.485 320.375C171.16 323.625 170.185 327.2 168.885 330.125L165.31 328.825L164.01 330.775V333.7L162.71 335C162.71 336.3 163.035 337.275 161.41 337.275H160.435L159.46 339.875C158.485 339.875 157.185 340.2 156.86 341.175L153.935 343.125L155.235 344.75C155.235 345.4 154.91 346.7 153.935 346.7C153.935 348 153.935 348.65 152.31 348.65H151.335C151.335 347.35 151.66 345.725 152.635 345.075L149.06 346.05C149.06 346.05 149.06 344.75 148.735 344.75C148.41 344.75 147.435 346.7 147.435 347.35C147.435 347.35 146.785 347.35 146.785 347.675C146.785 347.675 148.735 348.65 149.06 348.65C148.085 349.625 147.76 351.25 147.76 352.55L146.785 353.525C148.41 353.85 149.06 355.8 149.06 357.425L147.435 361C145.81 361 145.81 358.4 146.135 357.425C145.485 357.425 145.16 357.1 145.16 356.45C145.16 355.8 145.485 355.15 145.81 354.5L145.485 354.825C144.835 354.825 143.86 354.825 143.86 355.475C143.86 356.45 144.835 357.425 145.485 357.75L145.81 359.375L146.135 360.025L146.46 361L144.835 364.9L142.235 367.175L142.885 369.775C140.61 369.775 136.71 372.375 136.71 374.65C138.985 374.65 137.36 376.6 136.71 377.25C136.71 378.225 136.06 378.875 134.76 378.875H134.11L131.51 380.825C131.51 381.15 131.51 382.125 130.86 382.125C130.535 382.125 130.21 381.15 129.885 380.825C129.56 380.825 129.235 380.825 129.235 381.15C129.235 382.125 129.56 382.775 130.21 383.425L127.935 385.7L125.335 384.725L124.36 386.025L125.335 387.325C125.335 390.25 122.085 389.925 120.46 388.95L117.86 390.25C117.86 388.3 114.935 390.25 114.285 390.9C114.285 392.525 111.035 395.775 109.085 395.775C109.085 400 92.8348 404.55 88.2848 404.55L86.6598 407.15H78.5348L79.5098 403.575C73.0098 403.575 68.7848 405.85 67.8098 405.85H54.1598L53.1848 404.55C50.5848 404.55 46.6848 400.975 44.4098 400.975C43.4348 400 42.1348 399.675 40.8348 399.675C39.8598 399.025 29.7848 394.475 29.7848 392.2C29.4598 392.2 28.4848 392.2 28.4848 391.55C28.4848 391.225 29.4598 390.9 29.7848 390.575C29.7848 389.6 29.4598 388.3 28.4848 387.65C28.4848 382.775 23.2848 384.4 23.2848 381.8V380.825C21.3348 380.825 17.1098 374.975 17.1098 374.325C17.1098 372.7 17.4348 372.05 15.8098 371.075C14.8348 367.5 10.9348 363.925 8.98477 361C7.68476 353.525 4.75976 345.725 4.75976 338.25L3.45977 336.95C3.45977 334.675 4.75976 332.725 4.75976 330.45C0.209763 329.475 4.75976 308.35 4.75976 302.175C7.35976 299.575 5.08476 293.725 7.03476 290.15C9.30977 290.15 8.65977 289.175 7.35976 288.525C8.33476 287.55 8.65977 286.25 8.65977 284.95C8.65977 283.975 7.68476 281.375 9.63477 281.375C9.63477 279.1 9.63477 279.1 11.9098 279.1L12.2348 282.675C12.2348 290.8 7.03476 312.9 12.2348 315.5C12.2348 318.1 13.2098 320.05 13.2098 322.65C13.8598 323.3 14.5098 323.625 15.4848 323.625C15.8098 323.625 15.8098 323.3 15.8098 322.975C15.8098 321.675 15.1598 320.05 14.8348 318.75C15.4848 314.85 15.8098 310.95 15.8098 306.725C15.8098 306.4 15.8098 305.1 16.4598 305.1C17.1098 305.1 17.1098 306.075 17.1098 306.4C17.1098 308.35 16.4598 312.575 19.3848 312.575L18.4098 315.175V317.775C21.9848 321.35 21.0098 321.025 21.0098 327.2L24.5848 331.75V337.925C24.9098 338.575 25.8848 339.875 26.5348 339.875C27.8348 339.875 25.5598 335.975 29.7848 335.975V339.875C30.4348 340.85 32.0598 341.175 33.3598 341.175L34.6598 343.775C34.6598 344.425 34.6598 344.75 35.3098 344.75C37.9098 344.75 36.9348 346.7 36.9348 348.65L38.2348 349.95C38.2348 350.6 38.5598 351.25 39.2098 351.25C40.1848 351.25 40.8348 351.25 40.8348 352.55C41.8098 352.55 43.1098 352.875 44.0848 353.525C48.9598 353.525 52.5348 352.55 57.0848 352.225C57.0848 350.925 57.0848 349.95 58.7098 349.95H60.9848L62.9348 347.35C62.6098 347.35 60.6598 347.35 60.6598 346.7C60.6598 346.375 62.9348 346.05 63.2598 346.05L64.5598 343.775C65.8598 343.775 67.4848 343.45 68.1348 342.475C68.1348 340.85 65.2098 341.175 65.2098 340.525L65.5348 339.875C66.1848 339.875 68.4598 340.2 68.4598 339.225L68.1348 338.9C68.7848 339.55 69.4348 340.2 70.0848 340.2C70.7348 340.2 70.7348 339.225 70.7348 338.575H73.6598L74.6348 337.275C75.2848 337.275 75.6098 337.275 75.6098 336.625C75.6098 335.65 75.6098 335 76.9098 335L79.5098 333.375C79.5098 331.1 81.7848 328.825 83.0848 327.525C86.6598 327.525 86.6598 323.625 89.2598 323.625C89.2598 322.325 90.5598 322.65 90.5598 321.35C90.5598 320.375 90.2348 318.75 91.8598 318.75L94.4598 316.8C94.4598 315.825 94.4598 315.175 95.4348 315.175C96.4098 315.175 96.7348 314.85 96.7348 313.875C98.0348 311.925 99.3348 309 99.3348 306.725C100.635 305.75 104.21 303.475 104.21 301.525C105.835 300.225 107.785 299.575 107.785 296.975C107.785 296 107.46 293.725 109.085 293.725L111.685 291.775C111.685 288.85 115.585 288.85 115.585 286.25C116.56 285.275 116.56 283.65 116.56 282.675C121.435 278.45 127.935 270.975 128.91 264.15C131.835 264.475 130.535 261.225 131.835 261.225C135.085 261.225 133.785 259.925 134.11 256.675C136.71 255.05 139.96 252.45 139.96 248.875L142.235 247.25L142.56 245.95C143.535 244.975 143.86 243.675 143.86 242.375L146.46 240.425C146.46 238.8 152.31 231.975 152.31 229.375C153.935 227.425 155.56 224.5 157.51 222.875C159.135 222.875 167.26 211.5 167.26 208.575L169.86 206.625C169.86 205 175.71 198.175 175.71 195.575C177.66 195.575 180.585 189.725 181.235 188.1C181.885 188.1 182.535 187.775 182.535 187.125C182.535 186.15 182.535 185.5 183.51 185.5L186.11 183.225L189.035 176.075C190.335 174.775 192.285 172.825 192.285 170.875C193.26 168.925 194.885 168.275 195.86 166.65L195.21 164.375L189.36 165.025C189.035 166.65 184.16 166.325 182.535 166.975C182.535 167.625 176.685 169.575 175.71 169.575C174.735 169.575 173.11 168.925 172.785 167.95C171.81 168.925 164.335 169.9 162.385 169.9C162.385 172.175 161.41 170.875 161.085 169.9L159.785 171.2C158.81 171.2 151.01 170.55 151.01 168.925C151.01 168.6 151.985 168.6 152.31 168.6L154.91 167.3C155.885 167.3 158.81 167.95 159.135 166.325C161.41 166.325 163.035 164.05 165.31 164.05C168.235 164.05 170.835 163.075 174.085 163.075L176.685 162.1L174.085 161.45L173.76 161.775H168.56L167.26 163.075C165.96 162.75 162.06 162.425 161.085 164.05H159.46C157.185 165.025 152.96 164.375 150.36 165.025L151.335 164.7C144.835 162.425 131.51 168.275 124.36 170.875C123.385 170.55 122.085 169.9 121.76 168.925C122.735 168.925 124.035 168.275 124.685 167.3L122.085 166.975L120.135 165.675C121.11 164.7 123.06 164.375 124.36 163.725L125.66 164.7C127.285 164.375 129.885 163.725 131.835 164.375C132.81 164.05 134.11 164.05 134.435 165.025L137.36 162.75L139.96 163.725C142.56 161.45 147.11 159.825 150.685 159.175L147.11 158.85C145.81 159.175 143.535 160.475 141.91 160.475C141.585 160.475 140.61 159.5 139.31 159.5C138.66 159.825 137.36 160.475 137.36 161.45C137.36 160.475 136.385 159.825 135.41 159.825C128.585 159.825 121.435 161.45 114.61 161.45C111.685 161.45 109.735 160.15 108.11 157.875C110.385 157.55 114.61 156.9 114.61 156.575C114.61 155.925 112.985 155.6 112.66 155.6L105.185 157.55C104.21 157.225 102.91 157.55 101.935 157.875L99.0098 157.225C97.7098 157.875 89.2598 161.125 88.9348 158.85L84.7098 160.15L85.0348 157.55H86.9848C85.0348 155.925 91.5348 154.625 92.1848 154.625C92.5098 157.875 98.0348 153.975 99.0098 153C98.3598 151.375 101.935 151.05 102.91 150.725C103.235 150.075 103.56 148.775 104.21 148.775L104.535 149.425C104.535 151.375 107.135 148.125 107.785 148.125C108.435 148.125 108.76 148.45 108.76 149.1C110.71 148.125 112.335 146.825 114.61 146.5L114.935 146.175C114.935 144.55 111.685 143.575 111.685 142.275C111.685 141.95 112.985 141.625 113.31 141.625C113.635 141.3 113.635 140.975 113.635 140.325C113.635 139.675 112.66 139.675 112.01 139.675C110.385 139.675 102.91 142.925 100.31 143.575C101.935 142.275 103.885 140.975 105.835 140.325L102.585 140.65V138.375C98.3598 138.375 94.4598 138.7 90.2348 138.05L88.9348 138.7L84.7098 138.375C79.1848 141.625 70.7348 143.25 64.5598 143.25L61.9598 141.95C60.9848 142.6 59.3598 142.6 58.3848 141.95L50.9098 144.225L51.2348 142.925C52.2098 141.95 96.4098 125.375 99.9848 124.4L102.585 122.45C106.16 122.125 110.06 119.85 113.635 119.85C114.61 119.85 115.26 120.175 115.585 121.15L116.56 119.525L117.86 119.2C127.935 119.2 138.66 114.325 148.41 111.4C149.71 113.025 155.235 110.425 157.185 110.1L159.135 111.4C164.335 109.45 169.535 108.15 175.06 106.85C175.385 106.2 176.36 105.875 177.01 105.875C183.835 105.875 188.385 102.95 194.56 102.95C198.135 102.95 201.71 102.3 204.96 101.65C204.96 101 205.285 100.675 205.935 100.675C211.135 100.675 206.91 98.4 210.16 98.4L212.435 98.725L213.735 100.025C214.71 99.05 216.01 97.1 217.31 97.1C217.96 97.1 218.285 97.1 218.61 97.425L219.26 98.725L221.21 99.05C221.86 98.4 222.835 98.075 223.81 97.75L224.135 96.775C226.085 95.8 226.735 90.925 227.385 90.925C228.035 90.925 228.685 91.25 229.335 91.575L227.71 98.075H228.035C229.335 93.85 232.585 90.925 234.86 87.35C235.185 84.1 237.135 81.825 238.11 78.9C240.06 79.875 240.71 75.325 240.71 74.35C241.36 75 242.01 74.025 242.335 73.375C244.285 68.5 249.16 62.975 251.76 57.775C252.085 57.125 253.71 54.85 254.36 54.85C254.685 54.85 254.685 55.175 254.685 55.175C254.685 58.1 253.06 61.675 252.085 64.275C251.11 63.625 251.11 65.575 251.11 65.9C250.785 67.85 248.51 68.825 247.86 70.45C247.86 71.75 246.885 73.05 245.585 73.05C245.91 74.025 247.535 79.55 244.61 79.55H244.285L242.66 83.775H245.26L246.235 82.15C247.535 82.475 249.16 83.45 249.16 84.75L248.835 85.725L251.435 82.475C250.785 84.425 250.135 86.7 248.835 88.65L249.81 89.625L251.11 87.35C251.435 85.4 252.735 86.05 253.06 84.425C253.71 84.1 256.96 79.875 256.96 81.825L257.935 80.525L261.185 81.825L260.535 84.1L260.86 84.75C261.835 84.75 262.485 84.1 262.485 82.8V82.15L265.735 79.225C266.385 77.275 267.685 75.975 268.01 74.025L271.91 72.075L274.51 67.85C274.185 66.875 274.185 64.6 275.81 64.6L276.46 67.2C276.135 68.5 276.135 69.8 275.485 71.1L276.135 71.425C277.11 71.425 277.435 69.8 277.435 69.15L280.035 65.9C281.01 66.55 281.66 64.6 281.66 64.275C282.96 64.6 283.935 63.3 284.26 62.325L287.185 61.35L285.885 64.6L283.935 66.225L282.31 70.775C281.66 70.775 281.335 71.1 281.335 71.75V72.4C284.585 72.725 279.385 74.025 278.735 74.35L277.435 78.9L278.735 81.175L278.41 83.125V83.45C279.06 83.45 280.685 80.2 281.01 79.55C283.285 76.3 285.235 73.05 288.485 71.1C290.76 70.775 289.46 66.55 291.41 66.55H291.735C293.035 64.6 295.31 62 295.635 59.725C294.335 58.1 295.635 52.575 297.26 52.575C297.26 52.9 296.285 54.85 297.26 54.85C298.235 54.85 300.185 52.575 300.51 51.6L303.435 48.35C303.435 47.05 304.085 44.775 305.71 44.775L308.635 36.975C310.91 34.7 312.86 31.45 314.485 28.525C314.81 26.575 316.11 21.05 318.71 21.05C321.31 15.85 325.86 8.7 327.16 3.5C329.76 4.8 330.085 2.84998 331.06 0.899982L332.36 3.17498C331.71 5.775 330.41 3.5 329.76 7.725L328.785 8.7C327.81 11.3 325.535 13.9 323.91 16.175L322.935 20.725C323.26 21.375 323.91 23.975 322.61 23.975H321.96C321.31 26.25 319.685 31.775 317.735 33.4C317.735 35.675 315.46 45.1 313.185 45.75C311.885 49.325 309.61 52.575 308.635 56.475C307.335 57.45 306.035 59.075 305.71 60.7C305.71 61.025 305.385 62.975 304.41 62.975C302.46 69.475 296.61 73.7 294.66 80.2C292.385 79.875 293.035 83.125 292.71 84.425C293.685 85.4 294.66 86.7 292.385 86.7L290.76 90.925H291.085C304.735 90.925 317.735 88.325 331.385 88.325L333.335 87.025C337.235 87.025 341.46 87.675 345.36 87.675C345.685 87.675 360.31 86.7 360.31 89.625C363.885 89.625 370.06 87.025 374.285 87.025L375.585 88.325C379.485 88.325 383.06 88 386.635 89.625C390.21 89.625 393.785 89.3 397.36 89.95L394.76 92.225C393.46 92.225 388.91 90.925 388.91 93.525H394.435C393.785 94.5 396.06 94.5 396.385 94.5H417.835L421.085 96.45C421.085 100.35 413.935 98.4 411.335 98.4C411.335 98.725 411.335 99.7 410.685 99.7C410.36 99.7 409.71 98.725 409.385 98.4C407.76 99.375 405.81 101 403.86 101C402.885 101 402.56 100.35 402.56 99.7C401.585 99.7 397.36 99.05 397.36 100.675C397.36 101.65 397.36 101.975 396.06 101.975L393.785 101C392.81 101.65 391.51 101.975 390.535 101.975L389.56 100.675C388.585 101.975 386.635 103.275 385.01 103.925C384.685 105.225 382.735 105.875 381.435 105.875C374.285 105.875 367.46 108.15 360.635 108.15C357.06 110.75 352.185 111.075 347.96 111.075C350.885 112.7 365.51 112.05 369.085 112.05L370.385 113.35L372.66 112.05C372.66 114.975 383.385 109.45 383.385 113.025C383.385 113.675 383.385 114 383.06 114.65C381.435 114.65 376.885 114 375.91 115.625C368.76 115.625 363.235 116.925 356.085 116.925C355.435 116.925 353.81 116.925 353.81 117.9V118.225L350.885 119.525L350.235 120.825C345.685 120.825 341.46 122.775 336.585 122.775C335.61 122.775 333.985 122.45 333.01 122.125C333.01 123.425 335.935 127.975 332.685 127.975H324.885L325.535 130.575H321.635C321.635 133.825 323.585 133.175 325.86 133.175C338.86 133.175 348.935 131.875 361.61 131.875L362.585 134.475C362.26 134.475 360.31 134.475 360.31 135.125C360.31 135.775 362.585 135.775 362.91 135.775C362.91 136.75 361.935 138.05 360.635 138.05C359.01 138.05 346.335 138.7 346.335 140.325V140.65H338.21L335.935 143.25C333.985 143.25 330.41 142.6 329.11 144.55H324.235L321.31 145.85C319.36 145.85 316.435 145.2 314.81 146.825H309.61C308.96 146.175 306.685 144.875 306.685 146.825L304.085 147.8C304.085 145.525 301.81 147.8 301.81 149.425L298.235 149.1C298.235 146.5 295.635 149.75 295.31 150.4C294.66 148.45 284.91 151.7 282.31 151.7L280.035 154.3H274.185L273.21 154.95C272.235 155.275 271.26 155.6 270.285 155.6C268.66 155.6 267.035 154.625 267.035 156.9C266.71 156.9 264.435 157.875 264.435 158.2H265.085C268.335 158.2 273.86 155.6 277.11 155.6L279.385 156.9C279.385 157.225 279.385 158.2 279.71 158.2C280.36 158.2 281.01 157.225 281.335 156.9C282.635 156.9 283.935 157.225 285.235 157.55C285.235 158.2 282.635 158.2 282.31 158.2C282.31 158.525 276.135 160.475 275.485 160.475C272.56 160.475 269.96 159.175 267.035 159.175L266.385 160.475H263.46L261.51 161.775L260.535 164.375C257.285 165.35 258.26 169.9 258.26 172.5L256.96 173.15L251.76 181.6V185.175L249.16 186.475C249.16 187.45 248.835 189.075 247.86 189.725C248.185 191.025 248.51 193.95 246.56 193.95C246.56 198.175 240.06 199.475 240.06 203.7C240.06 205.65 235.835 213.125 233.885 213.125C233.885 215.075 232.585 212.8 232.585 218L231.285 219.3C231.285 221.25 231.61 221.9 229.335 221.9L225.76 228.075C225.76 230.025 224.46 232.625 222.185 232.625C222.185 234.25 222.51 235.225 220.56 235.225C219.585 239.125 218.935 243.35 218.61 247.25L216.985 248.875C216.335 252.45 214.71 255.375 213.085 258.625H209.835C209.835 260.9 209.51 263.5 208.535 265.45L205.935 267.725C205.935 267.075 206.585 264.15 205.935 264.15C204.96 264.15 204.31 264.8 203.66 265.45L201.385 277.8ZM92.1848 393.5H95.4348C95.4348 397.725 90.5598 396.425 90.5598 398.375C90.2348 398.375 89.2598 398.375 89.2598 398.7C89.2598 399.675 91.8598 399.675 92.8348 399.675C93.8098 399.675 95.4348 399.675 95.4348 398.375L98.0348 395.775L101.285 394.8H101.935C101.935 393.5 95.7598 393.5 95.7598 393.5L98.0348 391.55C99.3348 391.875 101.935 391.875 101.935 389.925L105.51 389.6C104.535 390.25 103.235 392.2 105.51 392.2L107.785 389.6C109.085 389.6 110.385 390.25 110.385 388.3C111.36 388.3 112.66 388.3 113.635 387.975C113.635 387 112.985 386.025 112.985 385.05L115.26 382.125C114.285 381.475 112.985 380.5 111.685 380.5C110.71 380.5 110.385 380.825 110.385 381.8C108.76 383.75 106.16 386.35 103.56 387L102.26 386.025C100.635 387.325 97.3848 388.3 95.4348 388.625L92.8348 390.9L92.1848 393.5ZM185.135 285.275C183.835 286.9 182.86 288.525 181.235 289.825C181.235 290.475 181.235 291.45 180.26 291.45H179.935L178.96 293.725C181.235 293.725 179.61 295.675 178.96 296.325C178.96 296.65 178.96 297.625 178.635 297.625C177.985 297.625 177.335 296.65 177.01 296.325L177.66 298.6C173.76 304.125 171.81 310.625 167.585 316.15L165.31 317.45C165.31 318.1 163.035 323.3 162.71 323.3L160.76 326.225C158.485 326.225 158.81 331.425 156.535 331.425L155.235 333.7L157.835 334.35C158.485 333.7 158.81 332.4 158.81 331.425C161.41 331.425 159.135 328.825 161.735 328.825C164.66 324.275 167.26 320.05 170.835 316.15L171.485 311.275L173.76 309.325V307.375C175.385 305.75 176.36 304.775 176.36 302.5L177.66 301.85C177.66 300.55 182.86 289.825 183.835 289.5C184.81 288.2 185.785 286.575 186.435 284.95C186.435 284.625 186.435 283 185.785 283C185.135 283 185.135 284.95 185.135 285.275ZM320.335 149.425H331.385C331.71 149.425 335.61 150.4 335.61 150.725C335.61 151.05 331.385 151.7 330.735 151.7C324.885 151.7 317.735 151.7 312.21 154.625C309.61 154.625 307.66 155.6 305.71 155.6H299.21C298.885 155.6 297.91 155.6 297.91 154.95C297.91 154.3 298.885 153.65 299.21 153.325C302.46 152.675 309.285 150.4 312.535 150.4C312.86 150.4 320.335 151.375 320.335 149.425ZM171.485 335C171.485 336.95 169.86 339.55 168.885 341.175C168.235 341.175 167.585 341.175 167.585 341.825C167.585 342.8 167.91 343.775 166.61 343.775C166.61 345.4 165.31 344.75 165.31 346.375C163.685 348 162.385 349.625 161.41 351.575C160.435 351.9 160.11 353.2 160.11 354.175L157.835 356.45C157.835 358.4 154.585 362.3 152.635 362.3C152.31 363.275 151.01 363.6 150.035 363.6C150.035 361.975 151.335 361.325 151.335 359.7L155.235 358.075L156.535 355.15C156.535 354.175 157.51 353.525 158.485 353.525H158.81C158.81 351.575 160.11 351.575 160.11 349.95L161.085 348.65C159.46 348.65 160.76 347.025 161.41 346.375C161.41 344.1 160.11 342.15 160.11 339.875C160.76 339.875 162.06 340.2 162.06 341.175L164.01 339.55L165.635 335C166.285 335 166.61 335.325 166.61 335.975C166.61 337.275 165.96 338.25 165.31 339.225C165.31 340.2 164.335 341.175 164.335 341.825C164.335 342.475 166.285 342.475 166.61 342.475C166.61 340.85 167.91 339.55 168.885 338.575C168.885 336.95 170.185 335.65 171.485 335ZM126.635 367.175L121.76 372.375C121.11 374 119.81 377.25 117.86 377.25L116.56 380.825C116.235 382.125 118.835 382.125 119.16 382.125C119.16 379.525 123.06 379.2 123.06 376.275L125.335 374.65C125.335 373.35 125.66 372.05 126.635 371.075C128.26 371.075 128.91 371.4 128.91 369.45L127.285 367.175L127.935 364.9C130.86 366.85 132.81 364.9 132.81 361.975C132.81 360.025 131.51 360.025 131.51 358.4C128.91 358.4 131.185 363.6 127.935 363.6C125.66 363.6 124.36 362.625 124.36 365.55C124.36 366.525 124.36 367.175 125.66 367.175H126.635ZM224.785 244L224.135 247.575C218.935 255.375 217.635 262.85 214.71 271.3C213.735 272.275 212.435 272.6 211.135 272.6C211.135 271.625 211.46 270.325 212.435 269.675C212.435 268.7 212.435 267.075 213.41 266.425L214.71 263.5C214.71 260.9 217.31 259.6 217.31 257L219.585 253.75C219.585 252.775 219.91 251.15 220.885 250.5L224.785 244ZM322.935 112.05C322.935 113.675 320.66 113.675 319.685 113.675C316.76 113.675 314.81 114.65 312.21 114.65L309.935 115.625H306.685L309.61 117.25C313.185 117.25 325.535 115.625 326.185 113.35L322.935 112.05ZM150.035 363.6C150.035 367.175 148.41 369.775 146.46 372.375C144.835 372.05 142.885 372.7 142.885 374.65C140.935 374.65 140.935 377.25 138.985 377.25C138.985 375.625 144.185 370.75 145.16 369.775C146.785 369.775 146.135 368.475 147.76 368.475C147.76 367.175 146.46 367.175 146.46 365.875C147.76 365.875 149.385 364.575 150.035 363.6ZM306.035 41.2C303.435 41.2 303.11 48.35 300.51 48.025L300.835 44.775C301.16 44.775 302.46 44.45 302.46 43.8C302.46 43.15 301.81 42.825 301.485 42.825C302.135 39.25 304.735 40.55 305.71 36.975C305.71 36.325 306.035 34.7 306.685 34.7C307.01 34.7 307.335 35.675 307.335 35.675C307.335 37.625 306.36 39.575 306.035 41.2ZM242.01 176.725L240.71 178.35C240.71 179.325 240.385 180.625 239.41 180.95L238.435 184.525C238.11 185.5 240.385 185.5 240.71 185.5L243.635 180.3C243.96 180.3 244.61 180.3 244.61 179.65C244.61 178.675 242.66 177.375 242.01 176.725ZM224.785 244L227.06 231.65C227.71 231 228.36 230.35 229.335 230.35C229.66 230.35 229.66 231 229.66 231C229.66 233.275 228.36 235.225 228.36 237.5C225.76 237.5 228.36 244 224.785 244ZM216.01 218C215.36 219.3 214.71 220.925 214.71 222.55C214.71 223.525 215.035 224.175 216.01 224.175L214.71 230.025H216.01C216.01 228.725 216.66 227.425 217.31 226.45V222.225C218.285 221.575 218.61 219.95 218.61 218.975L216.01 218ZM120.46 389.6L123.06 389.925L122.085 392.2C121.11 392.2 120.46 392.2 120.46 393.5V394.8H117.535L116.56 395.775C116.235 395.775 115.585 395.775 115.585 395.125C115.585 393.825 119.81 390.25 120.46 389.6ZM176.36 324.925C176.36 326.875 175.06 328.5 175.06 330.45C173.76 331.425 172.785 333.375 172.785 335C172.135 335 171.81 334.025 171.81 333.7C171.81 331.425 173.76 324.925 176.36 324.925ZM331.71 111.075C331.71 111.725 331.71 113.35 333.01 113.35H339.51L341.135 112.05L331.71 111.075ZM117.21 166.325V167.625C117.21 170.225 114.935 170.225 113.31 170.875V167.625L117.21 166.325ZM84.3848 400C83.4098 400.65 83.0848 402.275 83.0848 403.575C84.7098 402.275 88.2848 401.95 88.2848 400C88.2848 399.675 87.6348 399.675 87.6348 399.675L84.3848 400ZM287.185 61.35L287.835 57.45L289.135 56.8C290.11 57.775 290.435 59.075 290.435 60.7V61.025L287.185 61.35ZM176.36 324.925C176.36 322.975 176.36 320.05 178.96 320.05C178.96 322 178.96 324.925 176.36 324.925ZM245.91 169.25C245.26 169.9 244.61 170.55 244.61 171.525C244.61 172.5 245.585 172.825 246.56 172.825C246.885 172.825 248.185 172.825 248.185 172.175C248.185 170.875 246.885 169.9 245.91 169.25ZM78.2098 144.55C80.8098 144.225 83.4098 143.575 85.6848 142.6V143.9C83.7348 144.55 81.7848 145.525 79.5098 145.525C79.1848 145.525 78.5348 145.2 78.2098 144.55ZM424.985 97.1H426.935C428.56 97.1 428.56 98.075 428.56 99.375L425.96 99.7L424.985 97.1ZM142.885 338.9V340.85C142.885 342.475 144.185 342.475 145.485 342.475L144.835 339.875L142.885 338.9ZM276.135 86.05C276.135 86.05 277.11 86.05 277.11 85.725C277.11 85.4 276.46 85.075 276.135 85.075C274.51 85.075 274.51 89.3 272.885 87.675L273.535 88.975C274.51 87.675 275.485 88 276.135 86.05ZM207.235 270.325L204.96 271.3C204.96 270 205.285 268.7 205.935 267.725C205.935 269.35 207.235 268.375 207.235 270.325ZM202.36 277.8V274.225C203.01 273.575 203.335 272.275 203.335 271.3H204.31C202.36 271.95 204.31 276.825 202.36 277.8ZM289.46 120.825C291.41 121.475 293.685 122.125 295.635 122.125L292.385 120.5L289.46 120.825ZM70.7348 341.175C70.4098 341.825 69.7598 342.475 69.7598 343.125C69.7598 343.775 70.4098 343.775 70.7348 343.775C71.0598 343.775 72.0348 343.775 72.0348 343.125C72.0348 342.475 71.3848 341.825 70.7348 341.175ZM86.9848 140C87.6348 140 88.2848 139.675 88.6098 139.675C89.5848 139.675 90.2348 140 90.8848 140.325L85.6848 141.3L86.9848 140ZM28.4848 343.775V346.7L29.7848 347.025V344.425L28.4848 343.775ZM301.81 114.65C301.81 115.625 302.46 117.25 303.435 117.25C304.085 117.25 304.085 116.6 304.085 116.275L301.81 114.65ZM121.435 170.55L121.76 171.85C121.76 172.5 119.485 172.825 119.16 172.825L121.435 170.55ZM348.935 99.7C348.935 101 352.185 100.35 352.835 100.025L348.935 99.7ZM156.535 337.6C156.535 337.925 156.86 338.9 157.185 338.9C157.835 338.9 157.835 338.25 157.835 337.925C157.835 337.6 157.51 337.275 157.185 337.275C156.86 337.275 156.86 337.6 156.535 337.6ZM260.535 158.2C260.535 159.5 262.485 158.85 263.135 158.525L260.535 158.2ZM138.985 366.2V367.5C138.985 368.15 139.635 368.475 140.285 368.475L138.985 366.2ZM209.835 251.15C209.835 250.5 209.51 249.525 209.185 249.2V252.125L209.835 251.15ZM126.635 382.45C126.635 382.775 126.96 383.425 127.61 383.425C127.935 383.425 127.935 383.1 127.935 382.775C127.935 382.45 127.61 382.125 127.285 382.125C126.96 382.125 126.96 382.45 126.635 382.45ZM12.2348 328.825V330.45C12.2348 331.1 12.5598 331.425 13.2098 331.425L12.2348 328.825ZM137.685 358.725V359.375C137.685 360.025 138.01 361 138.985 361L137.685 358.725ZM208.535 253.75V252.775L207.885 253.1V255.05C208.21 254.725 208.535 254.075 208.535 253.75ZM29.7848 348.975C29.7848 349.3 29.7848 349.95 30.4348 349.95C30.7598 349.95 30.7598 349.625 30.7598 349.3C30.7598 348.975 30.7598 348.65 30.4348 348.65C30.1098 348.65 30.1098 348.975 29.7848 348.975ZM128.585 146.825H128.26L127.935 148.125C128.26 147.8 128.91 147.8 129.235 147.8L128.585 146.825ZM32.0598 391.225C32.0598 391.875 32.3848 391.875 33.0348 391.875H33.3598C33.3598 391.225 33.0348 391.225 32.3848 391.225H32.0598ZM229.66 91.575H229.335C229.335 91.25 229.66 91.25 229.66 91.25V91.575ZM204.31 271.3H204.96H204.31Z" fill="url(#paint0_linear_0_1)"/>
<rect x="1.5" y="1.5" width="587" height="499" stroke="black" stroke-opacity="0.01"/>
<path d="M457.174 331.425C455.874 332.075 454.574 332.4 453.274 332.725C453.274 334.675 453.924 336.95 454.574 338.9L452.299 340.525L445.474 342.15C445.474 340.525 445.474 338.9 445.149 337.275C443.199 338.25 440.924 338.9 438.974 339.225L438.649 340.525L439.299 342.475L436.374 344.1L435.074 341.5L435.399 340.2L433.124 342.8L429.549 343.125L428.899 343.775L425.649 344.75L424.999 346.05L420.449 347.025L418.499 348.975L413.624 350.6C412.324 352.225 408.749 353.525 406.474 353.525L405.174 354.825C401.924 355.8 398.674 357.425 395.099 357.425C392.499 359.7 389.574 360.675 386.649 362.3H382.424L379.499 363.6H378.849C378.849 363.6 379.499 364.25 378.849 364.25C377.549 364.25 375.274 364.9 374.949 366.525L370.399 367.175L368.449 368.475L362.924 369.45L361.624 371.075C359.999 371.725 358.049 372.375 356.099 372.375L354.799 373.675C353.824 373.35 351.224 372.7 351.224 374.325C348.949 375.3 346.349 375.625 344.074 375.625C341.474 377.575 338.549 378.55 335.624 379.85L331.399 379.525C329.449 380.825 325.224 381.15 322.949 381.15C321.649 382.125 319.699 382.775 318.074 382.775L316.449 382.45C315.149 383.1 314.174 384.075 312.874 384.075L311.249 385.05C311.249 386.675 307.674 386.35 306.699 386.35L305.724 387.325C304.424 387.325 302.474 386.35 302.474 388.3L295.974 389.6L291.749 392.2C291.424 392.85 290.124 392.85 289.474 392.85L284.924 393.175L282.324 394.475H277.774L273.874 396.1L270.949 395.775L267.699 397.075C263.799 397.075 261.199 398.05 257.299 398.375C257.299 399.025 256.324 399.025 255.999 399.025C254.049 399.025 252.424 398.7 250.474 399.025C250.149 400.325 243.974 401.3 242.349 401.3C234.224 401.3 225.774 400.65 217.649 400C217.649 401.3 216.349 401.95 215.374 401.625C214.074 402.275 212.449 402.6 211.149 402.6C210.174 402.6 209.524 402.275 209.524 401.3C209.524 400.65 209.849 399.675 208.549 399.675C207.899 399.675 204.649 401.3 204.649 400C204.649 399.025 205.299 397.725 205.624 397.075H210.174L213.424 395.775C216.999 396.1 214.724 393.175 216.999 393.175C218.949 393.175 221.874 394.15 223.824 394.475L230.649 391.875L230.974 390.575L233.249 390.9C234.549 389.6 244.299 388.625 246.574 388.3C247.224 387.65 248.524 387.65 249.499 387.65C249.499 385.05 251.774 386.025 251.774 385.05C246.899 387.325 235.849 386.35 233.249 388.95C232.599 388.95 230.974 388.625 230.324 389.275C229.024 388.95 215.374 389.6 215.374 392.525C209.199 392.2 203.674 394.475 197.499 394.475C196.849 397.4 191.974 396.425 190.024 396.1C190.349 397.075 187.749 397.075 187.424 397.075C186.124 397.075 184.824 397.075 184.499 398.375L160.449 399.675C160.449 400 160.124 400.65 159.799 400.65C158.824 400.65 157.849 399.35 157.849 398.375C157.849 397.725 158.499 397.4 159.149 397.4H163.699C163.699 395.45 176.699 394.475 179.949 393.175C180.274 393.175 182.549 393.5 182.549 392.85C182.549 391.875 180.924 390.9 180.924 389.6C180.924 389.275 181.249 388.95 181.574 388.625C187.749 388.95 197.174 387.975 203.024 385.05L205.949 385.375L211.474 383.425L212.449 381.8C214.399 382.125 216.674 381.475 218.624 381.15C217.649 382.45 219.924 381.475 219.924 381.15L219.599 378.875C228.374 380.175 224.799 379.85 231.949 376.6C235.524 376.6 239.749 373.025 242.999 373.025L243.324 372.375C243.324 372.05 239.099 371.725 238.124 371.725C238.124 374.65 230.649 373.675 230.649 375.3C228.699 375.3 227.074 374.65 225.774 376.275C217.324 376.6 217.974 376.275 211.149 379.2L207.574 377.25C204.974 377.575 204.974 379.85 202.699 379.85C201.724 379.85 199.449 378.875 198.474 378.55C195.224 377.575 199.774 383.75 190.024 380.5C189.699 380.825 189.374 381.475 188.724 381.475V380.175C185.799 380.175 183.199 378.875 180.274 378.875L182.224 377.25C183.199 377.25 187.424 376.925 187.424 375.95L191.324 376.6C194.899 375.95 199.124 375.3 202.374 374V372.7C202.374 372.05 202.049 371.075 201.074 371.075C200.749 368.8 198.474 370.75 198.474 368.475H193.274L194.574 366.2C197.499 366.2 192.949 363.925 199.774 363.925L201.399 362.625C202.699 362.3 203.999 362.3 205.299 361.65C207.899 361.975 207.899 359.7 209.524 359.7C214.074 359.7 218.949 355.8 224.474 355.8V354.5C225.124 354.5 229.999 354.5 229.999 353.2C230.324 353.2 232.274 353.525 232.274 352.55H235.199L236.174 351.575H238.774L239.099 350.6C241.374 350.275 239.424 348 241.699 348C243.324 346.375 247.549 346.05 249.499 345.4C250.799 345.725 251.774 346.05 252.749 347.025L255.349 345.4C255.024 344.425 255.674 344.1 256.649 344.1L257.624 344.425C257.624 344.1 257.624 342.15 258.599 342.15C258.924 342.15 259.249 343.125 259.574 343.45C262.499 343.775 264.774 341.825 267.699 341.825C268.674 339.875 271.924 340.525 273.549 340.525V339.55C274.199 339.55 275.824 339.55 275.824 338.575C277.449 338.575 278.424 337.6 279.399 337.6H280.049L283.299 335.975L284.274 334.675C285.574 334.675 286.549 333.7 287.849 333.375C288.824 332.4 290.449 332.075 291.749 331.75L293.699 332.075L294.674 331.75L295.324 330.45L297.599 330.775V329.8L299.874 328.825C299.874 328.175 300.199 327.525 300.524 327.525C300.849 327.525 301.174 327.85 301.174 327.85C306.374 325.575 314.499 322.325 317.424 322.325V321.35C325.224 319.4 331.399 314.525 339.199 312.9L341.149 313.55L342.449 312.9L343.099 311.6L346.024 311.925L349.599 309C351.549 308.35 356.749 308.35 356.099 306.075L358.049 306.4L359.674 306.075L361.299 303.475C362.599 302.5 364.874 304.45 366.499 304.45L366.824 303.475C369.099 301.85 371.699 300.875 374.299 300.225C376.249 298.6 379.174 298.275 381.449 297.3L382.424 296H385.349C386.974 294.7 388.599 293.725 390.549 293.4V292.1L397.699 291.125L400.624 288.525H402.249L402.899 287.225L405.824 286.9L407.449 284.3C411.674 283.325 416.224 281.7 419.149 278.125C421.424 277.475 423.699 276.5 425.649 275.2V274.55C427.599 273.9 429.549 272.6 430.849 270.975C432.149 271.3 437.349 269.35 438.649 268.375L440.274 266.1C442.224 265.45 444.499 263.5 445.799 261.875L446.449 258.625L449.699 257L451.649 257.325L453.924 254.4H454.574C455.549 251.475 459.774 245.95 461.724 243.675H464.649L466.924 241.075C466.924 240.1 467.249 239.125 467.249 238.475L467.899 238.15C466.924 234.9 464.649 232.3 463.349 229.375C460.749 228.725 458.474 227.425 455.874 227.1C447.424 222.225 438.324 219.625 430.524 213.775H427.274C426.299 213.125 424.999 212.8 423.699 212.475L422.074 210.2H421.749L419.474 208.25L421.099 206.3C422.399 206.625 424.024 207.275 424.999 208.25H429.874L431.499 205.325L429.224 204.35L423.699 204.675C421.424 202.4 419.149 199.8 417.199 197.2L413.624 196.225C409.724 192.325 405.174 192.65 400.299 191.35L399.649 190.05L398.999 191.35L401.924 192.65L404.199 195.25H405.174L407.774 196.225L411.024 195.9L413.949 198.825L417.199 198.5L417.524 201.75V202.075L414.274 201.1L413.624 204.35L412.649 205C411.024 204.675 405.824 202.4 404.849 202.725L403.549 200.125H401.274C398.674 199.15 396.399 197.2 394.124 195.9C395.099 194.925 396.724 193.95 397.374 192.65C394.774 191.35 391.849 191.35 388.924 190.7C388.274 190.7 386.974 191.025 386.324 191.35C385.024 190.375 383.074 188.425 381.774 188.1L379.824 185.825L377.549 187.45L374.949 184.525L375.274 181.925C374.299 179.65 372.999 177.375 371.374 175.425V174.775L370.399 177.7L372.999 179.975V182.9C371.049 180.3 368.124 178.675 365.849 176.075C364.874 174.45 364.224 171.525 364.549 169.575L361.949 168.6C361.624 166.325 360.649 164.05 359.349 162.1L359.024 158.85C359.349 158.2 357.724 158.2 357.399 158.2V155.6C359.024 152.35 361.624 148.775 360.974 144.875L362.599 141.95C362.274 141.3 363.574 138.7 363.899 138.05L367.149 136.75H367.474L366.824 135.125L368.774 133.825L369.749 131.55C371.374 130.575 373.324 129.275 374.624 127.65L375.924 123.75L381.774 121.15C383.399 118.55 385.674 114.325 389.574 114.325C392.174 110.75 395.749 109.125 399.649 107.5L399.324 107.175C404.199 104.25 409.399 101 414.274 98.4L417.849 98.075L420.774 96.125C421.424 96.45 424.349 95.15 424.999 94.825L426.624 93.2C437.024 91.25 442.224 88.65 451.649 84.1H456.199L459.124 81.825C460.749 82.15 462.699 81.5 464.324 80.85L467.899 81.5L470.174 79.875L471.799 81.5C473.424 81.5 477.974 78.9 480.574 78.575C499.424 75.325 519.249 75.65 538.424 73.7L538.749 74.675C545.249 73.7 551.749 74.025 558.249 73.05L575.474 74.675C580.024 74.675 584.249 74.35 588.474 74.675L587.174 76.625C585.549 76.625 583.599 76.3 582.299 77.6C575.149 77.925 569.299 77.275 562.799 80.85L559.224 80.2V82.15L557.599 83.125L555.974 81.5C554.349 82.15 552.399 83.125 551.099 84.425H549.474L546.874 86.7L547.199 89.95H550.774V90.925L553.049 92.225L550.124 94.175H546.549C543.624 94.175 541.024 94.825 538.099 94.825L537.774 96.775L539.399 97.75C541.024 97.425 543.299 97.425 544.924 97.425L542.974 99.7C541.349 100.35 539.399 100.675 537.449 100.35L534.199 101.975L535.174 102.95C540.049 102.625 545.249 101 550.124 102.3C551.424 103.275 553.049 104.25 554.024 105.55L557.274 104.9L559.224 106.85L556.949 109.45L557.274 110.75C558.899 110.75 560.524 110.425 562.149 110.1L565.399 111.075L563.124 112.375C561.824 112.7 560.199 113.025 558.899 113.025C553.699 113.025 549.799 114.975 544.924 114.975C544.274 115.95 542.324 116.275 541.674 117.25L543.299 116.6L546.224 117.9H546.549L544.274 119.2C540.699 119.85 536.474 120.175 532.574 120.175C527.374 120.175 521.524 125.375 516.324 125.375H515.349L512.424 127.325L508.199 127.975L506.899 129.275L503.324 128.95L500.724 129.925C497.474 129.925 493.899 131.225 490.649 131.225C489.349 131.225 487.724 130.9 486.424 130.575L479.599 134.475L477.324 133.175L476.024 134.8L476.999 136.425C475.049 136.425 472.774 136.425 470.824 136.75L468.874 134.8V136.425L469.849 138.375C468.224 139.025 466.599 139.675 464.649 139.675L461.399 140.975C459.449 140.65 457.824 140.65 455.874 140.65C454.249 143.25 451.324 143.575 448.399 143.575L446.774 146.825L448.074 149.75C451.324 151.05 453.924 151.7 457.174 151.7L458.149 153C459.774 153.975 461.724 154.95 463.674 155.6L465.949 158.525L468.224 155.925V155.6L470.824 156.9L471.474 160.15L477.324 162.1L480.574 161.125L483.499 162.425L483.174 164.7L486.099 166H486.424L489.024 168.275V168.6L491.299 166H491.949L493.899 168.275L494.224 169.575C497.149 172.5 498.449 172.175 502.349 172.5C502.349 173.475 502.349 174.45 502.674 175.1L504.624 176.4H508.199L509.499 179.65C510.799 179.65 512.099 179.975 513.399 179.975L515.349 183.225V183.55L518.924 183.225C519.574 184.85 520.874 186.8 522.174 188.1L525.749 189.725C530.949 194.925 541.674 199.8 542.974 206.95H543.299L544.274 208.9L544.599 207.925L548.174 209.55L548.824 213.125L547.849 216.375L545.249 217.025L548.174 220.275C548.499 223.2 547.524 227.425 550.774 229.05L550.124 231.65C551.749 233.6 553.374 235.875 554.349 238.15L552.074 240.425C552.399 241.725 552.724 244.65 550.774 244.975L552.399 246.925C549.149 251.8 549.149 256.675 545.574 261.55L546.549 264.475C544.274 271.3 542.649 274.875 539.399 281.375L538.099 282.35C536.799 281.7 535.499 281.05 534.199 280.075L532.574 283C531.599 283.65 528.999 286.25 528.024 286.25C527.374 286.25 527.049 286.25 526.724 285.6V288.2L528.024 289.175C529.974 287.875 531.599 285.6 534.199 285.6C534.849 285.6 535.499 285.925 535.824 286.575L528.349 292.75C519.574 291.45 522.174 292.75 515.024 295.675L513.074 295.025L514.374 292.75L513.399 291.45L508.199 295.025L507.549 299.575L511.449 297.95V298.6C511.449 299.575 511.124 301.85 509.499 301.85C508.524 301.85 507.224 301.2 506.574 300.875V303.475H504.299L501.374 305.425L498.124 306.075L492.599 311.6L493.899 313.875L499.099 315.175L495.849 316.475C494.224 316.15 492.599 316.15 491.299 315.5L489.349 316.8L487.074 314.525C485.449 315.825 483.824 318.1 483.174 320.05L481.224 318.75C478.949 319.725 476.024 320.375 473.424 320.375L472.449 322.65L468.549 325.575L470.174 326.875L467.249 329.8L463.024 328.825C461.074 329.8 459.124 330.775 457.174 331.425L458.149 330.125L456.849 326.875C458.149 325.575 459.774 324.6 461.724 324.6L465.299 321.675L470.174 320.7C471.149 319.075 474.074 315.825 476.024 315.175L475.049 312.575L471.474 313.875L468.874 316.475L469.199 316.8C466.924 316.8 464.324 316.8 462.049 317.125L464.974 317.775L462.699 320.7C459.774 321.675 456.849 322.975 453.924 323.625L451.649 326.225C449.374 326.225 447.424 327.2 446.449 329.475L449.049 330.45C450.349 329.475 451.649 328.175 453.274 327.525L457.174 331.425ZM538.424 259.6L534.524 260.9L533.549 259.6L533.224 260.9C528.024 264.475 527.374 271.625 522.174 275.2L525.099 277.475C522.499 278.125 519.899 278.45 517.299 279.75L516.649 283L523.474 281.7L523.799 280.725L525.099 280.075L526.399 278.125C528.349 276.825 529.649 275.2 529.974 272.925L537.449 268.375L538.749 266.1L537.449 264.475L536.799 261.875L539.724 257.975L539.074 253.425L536.799 254.4C537.449 256.025 538.099 257.65 538.424 259.6ZM488.374 307.05L485.774 308.35L484.474 311.6C486.749 311.6 489.024 310.95 490.649 309C491.949 308.35 493.899 307.05 494.224 305.425L497.149 301.2C500.074 300.225 502.349 298.275 505.274 297.3L507.224 294.7L504.949 293.075L502.024 294.05L500.724 297.625H498.124C494.224 299.25 491.949 302.175 487.074 303.8L486.749 305.1C486.749 306.075 487.399 306.725 488.374 307.05ZM181.574 368.475H193.274L190.999 369.775C191.324 371.4 187.749 371.4 186.774 371.4H185.149C181.899 373.35 175.074 373.35 171.499 373.025L169.549 374.325L154.924 374H153.624C153.624 373.35 156.874 372.05 157.524 371.725C160.124 371.725 172.149 372.375 174.749 369.775L179.949 370.1L181.574 368.475ZM394.449 189.075C395.424 189.075 396.074 189.075 396.724 188.75L395.424 187.45L394.449 184.85L391.849 185.5C390.549 184.2 389.574 182.575 387.624 182.575L386.324 180.625C385.024 180.3 384.049 179.975 382.749 179.975H381.124L378.524 182.25L380.799 184.525L382.749 182.9C384.049 183.875 385.999 184.85 387.624 185.5C389.574 187.45 391.849 189.075 394.449 189.075ZM262.824 364.9L260.549 366.85C260.549 366.525 259.899 365.55 259.574 365.875L256.649 367.5H256.974C258.274 367.5 256.324 368.15 255.999 368.15C248.524 368.15 251.774 370.425 248.524 370.75L245.924 372.375C251.774 371.725 251.774 369.775 258.599 369.775C258.924 369.125 259.574 368.8 260.224 368.8H261.199L263.474 368.475L264.124 366.85L263.799 364.9H262.824ZM473.424 235.55C472.124 232.625 470.174 231.65 467.899 229.7C467.249 227.425 465.624 225.475 463.674 223.85L462.374 225.475C463.024 227.1 469.849 235.225 472.124 236.2L473.424 235.55ZM370.074 327.525L368.774 326.225L369.749 331.1H370.074L373.649 333.7L375.274 332.075L372.024 331.1L372.999 328.825C374.624 327.525 376.574 326.55 377.874 324.925L372.674 325.25L370.074 327.525ZM270.624 367.175L271.599 366.85C271.599 366.525 270.949 363.6 271.599 363.6C272.249 363.6 272.899 364.25 273.224 364.575L273.549 365.875C275.174 363.925 276.799 363.925 278.424 362.3C279.724 361.65 281.024 360.675 282.324 359.7L281.999 359.375L277.449 361.325C276.799 361.325 275.499 361.325 275.174 362.3C273.224 362.625 271.924 362.3 270.624 363.925C269.324 364.25 267.699 364.575 266.399 364.575L267.049 366.85L270.624 367.175ZM360.324 160.8L361.299 161.125L361.949 164.375L363.574 162.425L361.624 159.5V155.6C362.599 154.625 363.249 153.65 363.249 152.35V151.7L359.999 153C360.324 154.3 359.674 156.25 359.349 157.55L360.324 160.8ZM453.274 212.15V215.4L456.524 215.725V216.375L459.774 217.35L463.349 220.275L462.374 216.7C459.449 214.75 456.199 214.1 453.274 212.15ZM506.249 106.2C501.699 106.2 496.824 106.85 492.274 107.175L491.624 108.8C496.499 108.15 502.024 109.45 506.249 106.2ZM553.374 249.525L555.649 243.35C555.974 245.625 556.624 247.9 556.624 250.5C556.624 251.8 556.299 253.425 555.324 254.725C554.349 253.1 553.374 251.475 553.374 249.525ZM427.924 203.7L430.199 202.075V200.775L427.924 200.45C426.299 199.475 424.674 198.5 423.374 196.875L423.049 199.15C423.049 201.75 425.974 202.725 427.924 203.7ZM462.049 330.125L465.949 329.8L464.974 332.075C463.349 333.375 461.399 334.35 459.449 335L457.174 333.7C459.124 332.725 461.074 332.075 462.049 330.125ZM375.924 167.3V170.875L374.949 173.475C376.899 173.8 379.174 174.775 380.799 176.075L379.824 173.475L378.199 172.175V169.9L375.924 167.3ZM530.299 100.675H528.999C525.424 100.675 522.174 101.975 518.599 101.975L517.949 103.275C518.274 103.6 519.249 103.275 519.249 102.625L522.824 102.3H523.149L522.824 102.95C525.424 102.95 528.349 102.95 530.299 100.675ZM213.099 365.55H212.449V365.875C208.874 365.55 207.899 367.5 205.299 367.5C204.974 367.5 202.049 367.5 202.049 368.15C202.049 368.475 203.674 368.475 203.674 368.475H208.549L210.824 367.5C211.799 367.5 213.099 366.85 213.099 365.55ZM216.999 397.075C216.674 399.675 212.124 397.075 211.799 399.35C213.099 399.35 222.199 399.35 222.524 397.075H216.999ZM386.974 174.45L383.399 173.475C383.399 176.075 385.349 178.025 387.949 178.025C387.624 177.05 387.624 175.425 386.974 174.45ZM499.099 311.275C500.724 309.325 502.674 307.7 504.624 306.075L504.299 309.65C502.674 310.3 501.049 310.95 499.099 311.275ZM391.199 318.75L389.574 317.45L388.599 320.7L389.574 321.35L391.524 320.05H393.474L392.824 317.45L391.199 318.75ZM412.324 344.425C407.449 344.425 404.524 347.35 399.974 348.65L401.274 349.625L402.574 348.325C404.849 347.675 406.799 346.7 408.749 345.725H409.074L412.324 344.425ZM552.399 225.15L552.074 220.925C553.374 222.225 554.999 224.175 554.999 226.125L552.399 225.15ZM443.849 146.175L440.924 145.525V145.85L443.849 151.05V146.175ZM373.649 164.7H371.374L372.024 168.275L371.374 170.875L373.649 166.975V164.7ZM273.224 376.925L271.924 375.95C271.274 376.6 269.974 376.925 268.999 377.25L268.674 377.9C268.674 378.875 269.974 378.875 270.624 378.875L273.224 376.925ZM370.724 160.15L369.099 158.85L368.774 162.1L370.074 163.725L370.724 160.15ZM288.174 356.125C290.124 355.8 292.074 355.15 293.699 354.5C293.699 353.85 293.699 353.525 294.024 352.875C292.074 353.85 290.124 354.825 288.174 356.125ZM440.599 332.075C438.324 332.4 434.749 332.4 433.449 334.675L440.599 332.075ZM194.574 389.925L196.524 391.225C197.174 391.225 198.474 390.9 198.474 389.925H194.574ZM342.774 338.25C343.749 337.925 344.724 337.925 345.699 337.925L346.349 336.3C345.049 336.95 343.424 336.625 342.774 338.25ZM369.749 153.65H367.149L369.099 155.925L369.749 153.65ZM510.149 107.5L512.099 108.15H512.424L513.074 105.875L510.149 107.5ZM173.774 379.525L175.724 380.175C175.724 380.825 175.399 381.15 174.749 381.15C174.099 381.15 173.124 380.5 173.124 379.85C173.124 379.525 173.774 379.525 173.774 379.525ZM205.624 370.75C205.624 371.725 206.599 372.05 207.574 372.05C208.224 372.05 208.874 372.05 208.874 371.4L205.624 370.75ZM483.174 314.2L480.899 312.575V314.85L483.174 314.2ZM264.774 378.55H263.149V378.875C263.149 379.2 263.474 379.85 263.799 379.85C264.449 379.85 265.099 379.525 265.099 378.875L264.774 378.55ZM220.899 370.425C220.574 370.425 218.624 370.1 218.624 370.75C218.624 371.4 220.899 372.05 220.899 370.425ZM402.249 184.525H401.924L405.174 185.5L405.499 184.85L402.249 184.525ZM223.824 396.1V396.425C223.824 397.075 226.424 396.1 227.074 396.1H223.824ZM217.974 363.925C217.974 364.25 218.299 364.9 218.624 365.225C219.274 365.225 219.274 364.575 219.274 364.25L217.974 363.925ZM328.149 342.475V342.8H328.474V343.125H328.799C329.124 343.125 329.449 342.8 329.449 342.475V342.15L328.799 342.475L329.124 342.15L328.474 341.825L328.149 342.15L328.474 342.475H328.149ZM540.374 105.225L540.049 105.55C541.024 105.55 542.324 105.875 543.624 105.875L540.374 105.225ZM178.649 378.875C178.324 379.525 177.674 380.175 176.699 380.175L178.649 378.875ZM285.899 358.725H284.599L285.249 359.375C285.574 359.375 285.899 359.05 285.899 358.725ZM223.824 369.775L225.449 368.8C224.799 368.8 224.149 369.125 223.824 369.775ZM178.649 378.875C179.299 378.55 179.949 378.55 180.274 378.875H178.649ZM328.474 342.8C328.474 342.475 328.799 342.475 328.799 342.475H328.474V342.8ZM550.124 237.175C550.449 237.175 550.449 237.5 550.774 237.5C550.449 237.5 550.449 237.175 550.124 237.175Z" fill="url(#paint1_linear_0_1)"/>
<path d="M124.426 241.74C124.426 241.74 124.426 239.173 124.426 234.04C124.426 228.907 124.426 225.46 124.426 223.7H134.986V222.6H124.426C124.426 220.693 124.353 218.787 124.206 216.88H119.366V214.46H124.206C124.059 213.727 123.986 213.213 123.986 212.92H122.886V211.16H123.986C123.839 210.573 123.766 209.987 123.766 209.4H115.406V207.42H123.326C123.326 207.273 123.253 207.053 123.106 206.76C123.106 206.467 123.106 206.32 123.106 206.32H120.906V205.22C120.906 201.26 120.173 198.62 118.706 197.3C116.066 195.54 112.913 194.66 109.246 194.66C102.059 194.66 98.4661 197.887 98.4661 204.34V293C98.4661 297.253 99.2728 300.333 100.886 302.24C102.646 304 105.506 304.88 109.466 304.88C114.159 304.88 117.239 304.147 118.706 302.68C120.319 301.213 121.126 298.133 121.126 293.44V269.02H128.166V262.64H147.746V269.02H144.006V298.94C144.006 305.1 143.346 309.867 142.026 313.24C140.853 316.613 138.799 319.18 135.866 320.94C129.999 324.313 121.419 326 110.126 326C95.6061 326 85.7061 323.213 80.4261 317.64C76.7594 313.533 74.9261 306.42 74.9261 296.3V241.08H78.4461V224.14H74.9261V201.92C74.9261 191.36 76.8328 184.32 80.6461 180.8C85.0461 176.84 93.6994 174.86 106.606 174.86C119.953 174.86 129.266 176.473 134.546 179.7C137.626 181.46 139.753 183.953 140.926 187.18C142.246 190.407 142.906 195.32 142.906 201.92V204.34H145.106C145.106 204.633 145.033 205.147 144.886 205.88C144.886 206.467 144.886 206.98 144.886 207.42H147.306V209.4H144.666C144.666 209.4 144.666 209.473 144.666 209.62C144.813 212.113 145.033 218.127 145.326 227.66H138.066C137.919 229.86 137.846 230.96 137.846 230.96C137.699 230.96 137.039 231.18 135.866 231.62H144.446V233.6H135.426V239.1H158.966V240.42H135.426V242.18L124.426 241.74ZM209.375 263.3C209.375 270.193 209.375 284.933 209.375 307.52H215.095V315.88L210.475 316.32V324.46C210.329 324.607 210.109 324.827 209.815 325.12C209.522 325.413 209.229 325.707 208.935 326H186.275V316.32C188.035 316.32 189.502 316.247 190.675 316.1C190.529 315.513 190.309 314.707 190.015 313.68C189.722 312.653 189.502 311.993 189.355 311.7C190.235 311.407 191.115 311.187 191.995 311.04C192.142 309.72 192.215 308.62 192.215 307.74H186.055V302.24C186.055 278.773 186.055 265.72 186.055 263.08L174.835 229.64C174.689 229.2 174.469 228.76 174.175 228.32C174.029 227.733 173.882 227.22 173.735 226.78C173.589 226.34 173.369 225.827 173.075 225.24C172.929 224.653 172.782 224.067 172.635 223.48H180.115C179.675 222.6 179.015 221.133 178.135 219.08C177.255 216.88 176.595 215.193 176.155 214.02C176.742 213.873 177.549 213.653 178.575 213.36C175.349 204.267 172.929 197.447 171.315 192.9H161.415C160.829 191.287 159.802 188.72 158.335 185.2C157.015 181.68 155.989 178.893 155.255 176.84H180.555C180.995 178.16 181.435 179.847 181.875 181.9C182.462 183.807 183.049 185.713 183.635 187.62C184.222 189.527 184.735 191.213 185.175 192.68H195.295C197.349 199.72 200.502 210.06 204.755 223.7C204.902 223.7 205.049 223.7 205.195 223.7C205.342 223.7 205.415 223.7 205.415 223.7L216.195 192.68H211.795C214.142 185.2 215.829 179.92 216.855 176.84H239.295C238.855 177.867 237.975 180.213 236.655 183.88C235.335 187.547 234.309 190.48 233.575 192.68H243.035C241.715 194.293 239.882 196.42 237.535 199.06C235.189 201.7 233.722 203.313 233.135 203.9H229.395C229.249 205.66 229.175 206.613 229.175 206.76L209.375 263.3ZM346.997 261.32H323.677C323.677 262.053 323.677 263.153 323.677 264.62C323.677 265.94 323.677 266.967 323.677 267.7H333.357C333.504 268.58 333.577 275.547 333.577 288.6C333.577 290.653 333.577 292.853 333.577 295.2C333.577 297.547 333.577 300.187 333.577 303.12C333.577 305.907 333.577 308.107 333.577 309.72H324.117C323.971 310.453 323.604 311.773 323.017 313.68C322.577 315.587 322.211 317.127 321.917 318.3C321.771 318.593 321.697 318.74 321.697 318.74C318.031 323.58 312.237 326 304.317 326H253.277V310.38C253.277 251.127 253.277 206.54 253.277 176.62C280.997 176.62 297.351 176.62 302.337 176.62C302.777 176.62 305.271 176.987 309.817 177.72C311.577 178.013 313.264 178.82 314.877 180.14C316.637 181.46 318.031 183.073 319.057 184.98C320.231 186.74 320.964 188.5 321.257 190.26C321.697 193.193 321.991 196.493 322.137 200.16C322.431 203.68 322.577 206.613 322.577 208.96C322.577 211.16 322.504 214.533 322.357 219.08C322.357 223.48 322.357 226.487 322.357 228.1H302.997V230.08H322.357V231.62C322.357 232.94 322.211 234.113 321.917 235.14H323.457V237.56H321.477C320.744 239.907 319.644 241.887 318.177 243.5H322.577V244.38H317.077C316.344 245.113 315.537 245.7 314.657 246.14C318.177 248.78 320.084 250.173 320.377 250.32C320.964 251.053 321.551 251.787 322.137 252.52H332.257V254.5H323.237C323.677 255.673 323.824 256.92 323.677 258.24C323.677 258.533 323.677 259.12 323.677 260H346.997V261.32ZM277.037 196.42V235.8H293.537C294.857 235.507 295.737 235.287 296.177 235.14C296.617 234.993 297.277 234.7 298.157 234.26C299.037 233.673 299.551 232.94 299.697 232.06C299.991 231.18 300.137 230.08 300.137 228.76C300.137 216.293 300.137 209.547 300.137 208.52C300.137 208.227 300.064 207.493 299.917 206.32C299.917 205.147 299.844 204.413 299.697 204.12C299.697 203.68 299.624 203.02 299.477 202.14C299.331 201.113 299.111 200.453 298.817 200.16C298.524 199.72 298.157 199.207 297.717 198.62C297.277 197.887 296.691 197.373 295.957 197.08C295.224 196.787 294.344 196.567 293.317 196.42H277.037ZM309.817 299.6V267.7H301.017L292.657 259.78H277.037V267.92H286.717V305.1H304.537L309.817 299.6ZM315.097 251.42H295.957V256.7H315.097V251.42ZM310.477 231.84V233.6H317.077V231.84H310.477ZM335.117 230.08H322.357C322.357 229.933 322.357 229.64 322.357 229.2C322.357 228.613 322.357 228.247 322.357 228.1H335.117V230.08ZM426.28 263.08H386.9V268.36H380.96V302.68H424.96V319.4C425.693 319.987 426.94 320.867 428.7 322.04V326H357.2V268.36H361.82L362.04 263.08H366.88V246.14H357.42V227.66H360.5L362.7 223.48C364.46 223.627 365.853 223.627 366.88 223.48V197.3L365.34 195.54V186.08H367.1L366.88 177.06H432.88V197.74H390.64V223.48H386.02V227.66H380.96V234.48C381.107 234.627 381.327 234.92 381.62 235.36C382.06 235.653 382.353 235.873 382.5 236.02H417.48V245.92H426.28V263.08ZM519.845 197.3L522.485 197.52C522.925 203.533 523.145 209.18 523.145 214.46H516.325V226.78H519.625V228.76H527.105V231.62H532.165V233.38H525.345V238.22H518.965C518.965 245.26 515.518 249.953 508.625 252.3C516.105 255.233 519.258 261.467 518.085 271L518.305 296.3V304.44L518.525 307.96H522.485V311.92H518.525V326H497.185V312.36H494.765V304.44H497.185V296.3H494.765V266.16C494.325 263.96 493.298 262.2 491.685 260.88C490.072 259.56 488.385 258.68 486.625 258.24C485.012 257.8 482.665 257.287 479.585 256.7C476.505 256.113 474.085 255.6 472.325 255.16C472.325 256.92 472.325 262.2 472.325 271H479.805C479.805 271.147 479.805 271.367 479.805 271.66C479.805 271.953 479.805 272.173 479.805 272.32C479.072 272.32 477.825 272.32 476.065 272.32C474.305 272.32 473.058 272.32 472.325 272.32V326H448.785V298.5C448.932 298.353 449.372 298.207 450.105 298.06C450.838 297.767 451.425 297.547 451.865 297.4C451.572 297.4 451.205 297.327 450.765 297.18C450.472 297.033 450.105 296.96 449.665 296.96C449.372 296.813 449.078 296.667 448.785 296.52V272.32C449.665 272.32 450.912 272.32 452.525 272.32C454.285 272.32 455.532 272.32 456.265 272.32C456.265 272.173 456.265 271.953 456.265 271.66V271H448.785V197.52H448.565H448.345H448.565H448.785H449.005H449.225H449.445H449.665H449.885H450.105H450.545H450.765H451.205H451.425H451.865H452.305H452.525H452.965H453.405H454.065H454.505H454.945H455.605H457.585V195.1H448.785V173.54H498.945C501.438 173.54 503.712 173.833 505.765 174.42C507.818 174.86 509.505 175.593 510.825 176.62C512.292 177.5 513.538 178.527 514.565 179.7C515.738 180.873 516.618 182.12 517.205 183.44C517.792 184.76 518.305 186.08 518.745 187.4C519.185 188.72 519.478 189.967 519.625 191.14C519.772 192.313 519.845 193.34 519.845 194.22C519.845 195.1 519.845 195.833 519.845 196.42V197.3ZM489.045 238.66C491.098 237.633 492.858 236.68 494.325 235.8C494.178 235.8 494.105 235.36 494.105 234.48C494.105 233.453 494.105 232.427 494.105 231.4C494.105 230.227 494.105 229.64 494.105 229.64H487.505V226.78H494.105V214.46H498.945V202.58L489.265 194.22L489.485 197.96L483.765 194H474.965H465.505V197.52H470.565V214.68H472.105V238.66H489.045Z" fill="white"/>
<defs>
<linearGradient id="paint0_linear_0_1" x1="178" y1="-83" x2="178" y2="536" gradientUnits="userSpaceOnUse">
<stop stop-color="#C800FF"/>
<stop offset="1" stop-color="#E100FF"/>
</linearGradient>
<linearGradient id="paint1_linear_0_1" x1="434" y1="-83" x2="434" y2="536" gradientUnits="userSpaceOnUse">
<stop stop-color="#0096FF"/>
<stop offset="1" stop-color="#00D9F6"/>
</linearGradient>
</defs>
</svg>
